<svg xmlns="http://www.w3.org/2000/svg" viewBox="0 0 300 300"><defs><style>.cls-1{fill:#344a58;}.cls-2{fill:#687b88;}.cls-3{fill:#f5ab35;}</style></defs><title>ll-bar-graph-hor</title><g id="Layer_2" data-name="Layer 2"><path class="cls-1" d="M249.37751,239.05412l-15.53029-8.96642a1.24486,1.24486,0,0,0-1.86757,1.07786v5.47993H63.005V66.46884h4.78627a1.245,1.245,0,0,0,1.07817-1.86757L60.59823,50.275a1.245,1.245,0,0,0-2.15649,0L50.16866,64.60127A1.24508,1.24508,0,0,0,51.247,66.46884h4.78627V240.1326a3.486,3.486,0,0,0,3.4859,3.48711h172.4605v5.48113a1.24485,1.24485,0,0,0,1.86772,1.07787l15.53014-8.96825A1.245,1.245,0,0,0,249.37751,239.05412Z"/><rect class="cls-2" x="83.19373" y="84.39359" width="116.06643" height="34.86139" rx="4.9802" ry="4.9802"/><rect class="cls-3" x="83.19373" y="131.70547" width="88.7568" height="34.86139" rx="4.9802" ry="4.9802"/><rect class="cls-2" x="83.19373" y="178.60234" width="38.49278" height="34.86139" rx="4.9802" ry="4.9802"/></g></svg>