<svg xmlns="http://www.w3.org/2000/svg" viewBox="0 0 300 300"><defs><style>.cls-1{fill:#344a58;}.cls-2{fill:#687b88;}.cls-3{fill:#f5ab35;}</style></defs><title>ll-counter</title><g id="Layer_2" data-name="Layer 2"><path class="cls-1" d="M224.133,94.894a18.64525,18.64525,0,0,1,18.62426,18.62423v72.96346A18.64525,18.64525,0,0,1,224.133,205.106H75.867a18.64525,18.64525,0,0,1-18.62426-18.62423V113.51827A18.64525,18.64525,0,0,1,75.867,94.894H224.133m0-7.24293H75.867a25.94323,25.94323,0,0,0-25.8672,25.86716v72.96346A25.94323,25.94323,0,0,0,75.867,212.34889H224.133a25.94323,25.94323,0,0,0,25.8672-25.86716V113.51827A25.94323,25.94323,0,0,0,224.133,87.65111Z"/><path class="cls-2" d="M102.40864,135.96688a12.83152,12.83152,0,0,1,8.226-2.53268q5.04015,0,7.93726,2.606a8.53949,8.53949,0,0,1,2.89481,6.64455,8.34808,8.34808,0,0,1-1.6067,5.16161,7.809,7.809,0,0,1-3.846,2.87189v.19482a8.18715,8.18715,0,0,1,4.48089,3.18819,10.89992,10.89992,0,0,1,1.6067,6.30533,8.877,8.877,0,0,1-2.99566,6.766q-2.99453,2.77447-8.32461,2.77563a13.53472,13.53472,0,0,1-8.71424-2.70229,10.00875,10.00875,0,0,1-3.626-7.76533h5.35415a6.07172,6.07172,0,0,0,1.99634,4.21271,6.91236,6.91236,0,0,0,4.82011,1.62963,6.211,6.211,0,0,0,4.62529-1.62963,5.75271,5.75271,0,0,0,1.60671-4.21271q0-3.40708-2.16825-4.843-2.166-1.43709-6.64456-1.43709h-1.26519v-4.57486h1.31333q8.0828-.09969,8.08165-5.3083a4.82425,4.82425,0,0,0-1.50815-3.72452,7.236,7.236,0,0,0-8.51943,0,5.60886,5.60886,0,0,0-1.80152,3.43344H98.92706A9.32146,9.32146,0,0,1,102.40864,135.96688Z"/><path class="cls-2" d="M141.13684,138.01135a6.37852,6.37852,0,0,0-5.74609,2.94524q-1.89778,2.94637-1.99634,9.76168a8.35266,8.35266,0,0,1,3.70161-3.30966,11.98214,11.98214,0,0,1,5.25788-1.16893,10.48872,10.48872,0,0,1,7.88683,3.11484,11.62721,11.62721,0,0,1,3.01859,8.44607,12.20446,12.20446,0,0,1-3.069,8.64318q-3.06672,3.31082-8.56756,3.30967-7.54647,0-10.36909-5.06306a17.73861,17.73861,0,0,1-2.04447-5.769,44.08968,44.08968,0,0,1-.58447-7.7172q0-17.81582,12.56025-17.81811a10.75707,10.75707,0,0,1,7.6668,2.62894,10.42931,10.42931,0,0,1,3.28675,6.47494h-5.1112Q145.95466,138.01365,141.13684,138.01135ZM147.951,158.094a7.61566,7.61566,0,0,0-1.72819-5.20975,6.15937,6.15937,0,0,0-4.89116-1.97113,7.74831,7.74831,0,0,0-5.235,1.77631,6.39784,6.39784,0,0,0-2.0674,5.1364,7.30392,7.30392,0,0,0,1.923,5.33122,6.911,6.911,0,0,0,5.18454,1.97113,6.56667,6.56667,0,0,0,5.03785-1.89778A7.21559,7.21559,0,0,0,147.951,158.094Z"/><path class="cls-2" d="M164.35726,168.80454a3.28683,3.28683,0,0,1-2.386.9489,3.15523,3.15523,0,0,1-2.36078-.97411,3.41117,3.41117,0,0,1,0-4.72155,3.16375,3.16375,0,0,1,2.36078-.9741,3.32639,3.32639,0,0,1,3.3601,3.36009A3.16368,3.16368,0,0,1,164.35726,168.80454Z"/><path class="cls-2" d="M183.97692,165.08a5.4451,5.4451,0,0,0,5.06307-2.72749q1.609-2.72292,1.6067-9.2987a7.47106,7.47106,0,0,1-3.28446,2.55789,11.63375,11.63375,0,0,1-4.60237.90076,11.419,11.419,0,0,1-8.10457-2.97045q-3.19048-2.97045-3.18819-8.3498a11.6728,11.6728,0,0,1,3.14006-8.56754q3.13892-3.19048,8.6409-3.19049,6.61819,0,9.42019,4.40754,2.79855,4.4041,2.79855,13.704T192.886,165.27484q-2.57851,4.43161-9.24829,4.43046-5.212,0-8.03352-2.72749a10.39281,10.39281,0,0,1-3.16527-6.86458h5.11349Q178.52536,165.08117,183.97692,165.08Zm-7.20381-20.13074a7.13871,7.13871,0,0,0,1.72818,4.96449,7.38808,7.38808,0,0,0,9.83275.09856,8.21183,8.21183,0,0,0-.09626-10.078,6.35646,6.35646,0,0,0-4.843-1.87486,6.27447,6.27447,0,0,0-4.84532,1.923A7.03129,7.03129,0,0,0,176.77311,144.94928Z"/><path class="cls-2" d="M207.82994,169.75344h-5.549V133.72758h5.549v20.933l9.73878-11.73281h7.692l-12.36543,13.43807,12.36543,13.38765h-7.49718l-9.9336-11.538Z"/><path class="cls-3" d="M75.35518,168.33525V148.72439h-4.972a1.29341,1.29341,0,0,1-1.12007-1.94021l8.594-14.882s1.74242-.86213,2.24023.00011l8.59213,14.882a1.29336,1.29336,0,0,1-1.12008,1.94H82.59749v19.61086a3.62114,3.62114,0,0,1-3.62115,3.62114h0A3.62115,3.62115,0,0,1,75.35518,168.33525Z"/></g></svg>