<svg xmlns="http://www.w3.org/2000/svg" viewBox="0 0 300 300"><defs><style>.cls-1{fill:#f4f4f4;}.cls-2{fill:#687b88;}</style></defs><title>pie-chart-grey</title><g id="background"><rect class="cls-1" width="300" height="300"/></g><g id="Layer_2" data-name="Layer 2"><g id="PIE-CHART"><path class="cls-2" d="M142.91,57.35V150a6.94,6.94,0,0,0,6.94,6.94H242.5a92.72,92.72,0,1,1-99.59-99.59m6.94-7.2C95.07,50.15,50,95.22,50,150s45.07,99.85,99.85,99.85S249.7,204.78,249.7,150H149.85V50.15ZM249.71,150h0Z"/><path class="cls-2" d="M161.42,145.49H250a94.62,94.62,0,0,0-25.93-65.06,2.5,2.5,0,0,0-3.56,0l-60.84,60.85A2.48,2.48,0,0,0,161.42,145.49Z"/><path class="cls-2" d="M159.67,135.37l56.67-56.68a2.49,2.49,0,0,0,0-3.56,88.7,88.7,0,0,0-60.88-24.2v82.69A2.48,2.48,0,0,0,159.67,135.37Z"/></g></g></svg>