<svg xmlns="http://www.w3.org/2000/svg" viewBox="0 0 300 300"><defs><style>.cls-1{fill:#f5ab35;}.cls-2{fill:#344a58;}.cls-3{fill:#9ba5ab;}</style></defs><title>ll-table</title><g id="Layer_2" data-name="Layer 2"><path class="cls-1" d="M75.01644,49.65239H224.98356a10,10,0,0,1,10,10V87.04395a0,0,0,0,1,0,0H65.01644a0,0,0,0,1,0,0V59.65239A10,10,0,0,1,75.01644,49.65239Z"/><path class="cls-2" d="M224.98364,49.6524H153.25v-.00006h-6.5v.00006H75.01636a10.00007,10.00007,0,0,0-10,10V241.1449a9.20279,9.20279,0,0,0,9.20263,9.2027H146.75v.00006h6.5v-.00006h72.531a9.20279,9.20279,0,0,0,9.20263-9.2027V59.6524A10.00007,10.00007,0,0,0,224.98364,49.6524Zm-153.46728,10a3.50393,3.50393,0,0,1,3.5-3.5H146.75v24.228H71.51636ZM74.219,243.8476a2.70572,2.70572,0,0,1-2.70263-2.7027V87.044H146.75V243.8476Zm154.26465-2.7027a2.70572,2.70572,0,0,1-2.70263,2.7027H153.25V87.044h75.23364ZM153.25,80.38043V56.1524h71.73364a3.50393,3.50393,0,0,1,3.5,3.5v20.728Z"/><path class="cls-3" d="M124.5,115.43848H91.25a3.25,3.25,0,0,1,0-6.5H124.5a3.25,3.25,0,0,1,0,6.5Z"/><path class="cls-3" d="M124.5,150.70215H91.25a3.25,3.25,0,0,1,0-6.5H124.5a3.25,3.25,0,0,1,0,6.5Z"/><path class="cls-3" d="M124.5,185.96582H91.25a3.25,3.25,0,0,1,0-6.5H124.5a3.25,3.25,0,0,1,0,6.5Z"/><path class="cls-3" d="M124.5,221.22852H91.25a3.25,3.25,0,0,1,0-6.5H124.5a3.25,3.25,0,0,1,0,6.5Z"/><path class="cls-3" d="M209,115.43848H175.75a3.25,3.25,0,0,1,0-6.5H209a3.25,3.25,0,0,1,0,6.5Z"/><path class="cls-3" d="M209,150.70215H175.75a3.25,3.25,0,0,1,0-6.5H209a3.25,3.25,0,0,1,0,6.5Z"/><path class="cls-3" d="M209,185.96582H175.75a3.25,3.25,0,0,1,0-6.5H209a3.25,3.25,0,0,1,0,6.5Z"/><path class="cls-3" d="M209,221.22852H175.75a3.25,3.25,0,0,1,0-6.5H209a3.25,3.25,0,0,1,0,6.5Z"/></g></svg>