<svg xmlns="http://www.w3.org/2000/svg" viewBox="0 0 300 300"><defs><style>.cls-1{fill:#344a58;}.cls-2{fill:#9ba5ab;}.cls-3{fill:#f5ab35;}.cls-4{fill:#687b88;}</style></defs><title>ll-stacked-area</title><g id="Layer_2" data-name="Layer 2"><path class="cls-1" d="M231.97965,243.61971v5.48113a1.24485,1.24485,0,0,0,1.86772,1.07787l15.53014-8.96825a1.245,1.245,0,0,0,0-2.15634l-15.53029-8.96642a1.24486,1.24486,0,0,0-1.86757,1.07786v5.47993H63.005V66.46884h4.78627a1.245,1.245,0,0,0,1.07817-1.86757L60.59823,50.275a1.245,1.245,0,0,0-2.15649,0L50.16866,64.60127A1.24508,1.24508,0,0,0,51.247,66.46884h4.78627V240.1326a3.486,3.486,0,0,0,3.4859,3.48711"/><path class="cls-2" d="M126.02515,110.18848a12.99109,12.99109,0,0,1,6.83642,1.94268l34.26563,21.18549a5.0001,5.0001,0,0,0,3.75683.61859l53.98867-9.59161a4.99773,4.99773,0,0,1,1.12695-.12879l.00049.00006V89.10632l-53.98891,9.59161a10,10,0,0,1-7.51318-1.237L130.23218,76.27539a8.00042,8.00042,0,0,0-8.45044.02258L84.39355,99.69061v34.21057L119.12988,112.168A12.985,12.985,0,0,1,126.02515,110.18848Z"/><path class="cls-3" d="M226,173.19487v40.26886H84.39358V183.77918l37.38831-23.39266a8,8,0,0,1,8.45024-.02254l34.266,21.18554a10,10,0,0,0,7.51306,1.237Z"/><path class="cls-4" d="M126.02515,151.16843c2.41674,0,4.78076,1.67176,6.83642,2.94269l34.26563,21.18549a5.0001,5.0001,0,0,0,3.75683.61859l53.98867-9.59161a4.99773,4.99773,0,0,1,1.12695-.12879l.00049.00006v-34.98l-53.98891,9.59162a10.00006,10.00006,0,0,1-7.51318-1.237L130.23218,118.384a8.00042,8.00042,0,0,0-8.45044.02259L84.39355,141.79919v34.08195l34.73633-21.73327C121.19946,152.85294,123.58374,151.16843,126.02515,151.16843Z"/></g></svg>