<svg xmlns="http://www.w3.org/2000/svg" viewBox="0 0 300 300"><defs><style>.cls-1{fill:#344a58;}.cls-2{fill:#f5ab35;}.cls-3{fill:#687b88;}</style></defs><title>ll-pie-chart</title><g id="Layer_2" data-name="Layer 2"><g id="PIE-CHART"><path class="cls-1" d="M142.91072,57.34682l.0003,92.653a6.93788,6.93788,0,0,0,6.93776,6.93775h92.6534a92.716,92.716,0,1,1-99.59146-99.59078m6.93776-7.19575c-54.77553,0-99.84855,45.07329-99.84855,99.84878s45.07332,99.84908,99.84885,99.84908,99.84915-45.07359,99.84915-99.84908H149.84878l-.0003-99.84878Zm99.85883,99.84878h0Z"/><path class="cls-2" d="M161.41822,145.49162h88.58185A94.56263,94.56263,0,0,0,224.065,80.43483a2.486,2.486,0,0,0-3.55019-.02421l-60.84865,60.8513A2.47772,2.47772,0,0,0,161.41822,145.49162Z"/><path class="cls-3" d="M159.66656,135.37092l56.67608-56.68487a2.48915,2.48915,0,0,0-.02636-3.55639,88.67222,88.67222,0,0,0-60.87917-24.20139l-.00043,82.69076A2.47773,2.47773,0,0,0,159.66656,135.37092Z"/></g></g></svg>