<svg xmlns="http://www.w3.org/2000/svg" viewBox="0 0 300 300"><defs><style>.cls-1{fill:#f4f4f4;}.cls-2{fill:#687b88;}</style></defs><title>table-grey</title><g id="background"><rect class="cls-1" width="300" height="300"/></g><g id="Layer_2" data-name="Layer 2"><path class="cls-2" d="M75,49.65H225a10,10,0,0,1,10,10V87a0,0,0,0,1,0,0H65a0,0,0,0,1,0,0V59.65A10,10,0,0,1,75,49.65Z"/><path class="cls-2" d="M225,49.65H75a10,10,0,0,0-10,10V241.14a9.2,9.2,0,0,0,9.2,9.21H225.78a9.2,9.2,0,0,0,9.2-9.21V59.65A10,10,0,0,0,225,49.65Zm-153.46,10a3.5,3.5,0,0,1,3.5-3.5h71.73V80.38H71.52Zm2.7,184.2a2.7,2.7,0,0,1-2.7-2.71V87h75.23V243.85Zm154.26-2.71a2.7,2.7,0,0,1-2.7,2.71H153.25V87h75.23ZM153.25,80.38V56.15H225a3.5,3.5,0,0,1,3.5,3.5V80.38Z"/><path class="cls-2" d="M124.5,115.44H91.25a3.25,3.25,0,0,1,0-6.5H124.5a3.25,3.25,0,0,1,0,6.5Z"/><path class="cls-2" d="M124.5,150.7H91.25a3.25,3.25,0,0,1,0-6.5H124.5a3.25,3.25,0,0,1,0,6.5Z"/><path class="cls-2" d="M124.5,186H91.25a3.25,3.25,0,0,1,0-6.5H124.5a3.25,3.25,0,1,1,0,6.5Z"/><path class="cls-2" d="M124.5,221.23H91.25a3.25,3.25,0,0,1,0-6.5H124.5a3.25,3.25,0,1,1,0,6.5Z"/><path class="cls-2" d="M209,115.44H175.75a3.25,3.25,0,0,1,0-6.5H209a3.25,3.25,0,0,1,0,6.5Z"/><path class="cls-2" d="M209,150.7H175.75a3.25,3.25,0,0,1,0-6.5H209a3.25,3.25,0,0,1,0,6.5Z"/><path class="cls-2" d="M209,186H175.75a3.25,3.25,0,0,1,0-6.5H209a3.25,3.25,0,0,1,0,6.5Z"/><path class="cls-2" d="M209,221.23H175.75a3.25,3.25,0,0,1,0-6.5H209a3.25,3.25,0,0,1,0,6.5Z"/></g></svg>