<svg xmlns="http://www.w3.org/2000/svg" viewBox="0 0 300 300"><defs><style>.cls-1{fill:#f4f4f4;}.cls-2{fill:#687b88;}</style></defs><title>frequency-grey</title><g id="background"><rect class="cls-1" width="300" height="300"/></g><g id="Layer_2" data-name="Layer 2"><path class="cls-2" d="M232,243.62v5.48a1.25,1.25,0,0,0,1.87,1.08l15.53-9a1.25,1.25,0,0,0,0-2.16l-15.53-9a1.25,1.25,0,0,0-1.87,1.08v5.48H63V66.47h4.78a1.25,1.25,0,0,0,1.08-1.87L60.6,50.27a1.25,1.25,0,0,0-2.16,0L50.17,64.6a1.25,1.25,0,0,0,1.08,1.87H56V240.13a3.49,3.49,0,0,0,3.49,3.49"/><path class="cls-2" d="M81.62,199.61h0a3.49,3.49,0,0,0,4.93,0l43.37-43.37L125,151.31,81.62,194.68A3.49,3.49,0,0,0,81.62,199.61Z"/><path class="cls-2" d="M223.55,93.41l-20.19,5.41a2,2,0,0,0-.9,3.33l4.93,4.93L184.8,129.67l-16.62-16.61a3.49,3.49,0,0,0-4.93,0l-28.4,28.4,4.93,4.93,25.93-25.94L181.27,136a5,5,0,0,0,7,0l24-24,4.93,4.92a2,2,0,0,0,3.33-.89L226,95.85A2,2,0,0,0,223.55,93.41Z"/><path class="cls-2" d="M216.15,163.66,196,169.07a2,2,0,0,0-.89,3.33l4.92,4.93-17.09,17.09L103,114.49a5,5,0,0,0-7,0L81.62,128.78a3.49,3.49,0,0,0,0,4.93h0a3.49,3.49,0,0,0,4.93,0l12.88-12.88,79.94,79.93a5,5,0,0,0,7,0l18.5-18.5,4.93,4.92a2,2,0,0,0,3.33-.89l5.41-20.19A2,2,0,0,0,216.15,163.66Z"/></g></svg>