<svg xmlns="http://www.w3.org/2000/svg" viewBox="0 0 300 300"><defs><style>.cls-1{fill:#344a58;}.cls-2{fill:#f5ab35;}</style></defs><title>ll-accumulation</title><g id="Layer_2" data-name="Layer 2"><path class="cls-1" d="M249.37751,239.05412l-15.53029-8.96642a1.24486,1.24486,0,0,0-1.86757,1.07786v5.47993H63.005V66.46884h4.78627a1.245,1.245,0,0,0,1.07817-1.86757L60.59823,50.275a1.245,1.245,0,0,0-2.15649,0L50.16866,64.60127A1.24508,1.24508,0,0,0,51.247,66.46884h4.78627V240.1326a3.486,3.486,0,0,0,3.4859,3.48711h172.4605v5.48113a1.24485,1.24485,0,0,0,1.86772,1.07787l15.53014-8.96825A1.245,1.245,0,0,0,249.37751,239.05412Z"/><path class="cls-2" d="M190.02334,93.60369,179.18873,75.72343a1.99216,1.99216,0,0,0-3.44942.073L165.66948,94.11952a1.99188,1.99188,0,0,0,1.78824,2.95092l6.95568-.14712c-.811,44.378-12.16112,76.46051-33.82547,95.32107-24.78426,21.57924-54.894,17.81248-55.26366,17.76627a3.48581,3.48581,0,0,0-.95324,6.90614,55.73469,55.73469,0,0,0,7.15174.39151c11.22246,0,33.66983-2.47065,53.54929-19.72139,23.31975-20.23875,35.5058-54.16757,36.31678-100.81133l6.973-.14773A1.99218,1.99218,0,0,0,190.02334,93.60369Z"/></g></svg>