<svg xmlns="http://www.w3.org/2000/svg" viewBox="0 0 300 300"><defs><style>.cls-1{fill:#f4f4f4;}.cls-2{fill:#687b88;}</style></defs><title>accumulation-grey</title><g id="background"><rect class="cls-1" width="300" height="300"/></g><g id="Layer_2" data-name="Layer 2"><path class="cls-2" d="M249.38,239.05l-15.53-9a1.25,1.25,0,0,0-1.87,1.08v5.48H63V66.47h4.78a1.25,1.25,0,0,0,1.08-1.87L60.6,50.27a1.25,1.25,0,0,0-2.16,0L50.17,64.6a1.25,1.25,0,0,0,1.08,1.87H56V240.13a3.49,3.49,0,0,0,3.49,3.49H232v5.48a1.25,1.25,0,0,0,1.87,1.08l15.53-9A1.25,1.25,0,0,0,249.38,239.05Z"/><path class="cls-2" d="M190,93.6,179.19,75.72a2,2,0,0,0-3.45.08L165.67,94.12a2,2,0,0,0,1.79,2.95l6.95-.15c-.81,44.38-12.16,76.46-33.82,95.32C115.8,213.82,85.69,210.06,85.32,210a3.49,3.49,0,0,0-.95,6.91,56.11,56.11,0,0,0,7.15.39c11.23,0,33.67-2.47,53.55-19.72,23.32-20.24,35.51-54.17,36.32-100.81l7-.15A2,2,0,0,0,190,93.6Z"/></g></svg>