<svg xmlns="http://www.w3.org/2000/svg" viewBox="0 0 300 300"><defs><style>.cls-1{fill:#f4f4f4;}.cls-2{fill:#687b88;}</style></defs><title>counter-grey</title><g id="background"><rect class="cls-1" width="300" height="300"/></g><g id="Layer_2" data-name="Layer 2"><path class="cls-2" d="M224.13,94.89a18.65,18.65,0,0,1,18.63,18.63v73a18.65,18.65,0,0,1-18.63,18.63H75.87a18.65,18.65,0,0,1-18.63-18.63v-73A18.65,18.65,0,0,1,75.87,94.89H224.13m0-7.24H75.87A25.94,25.94,0,0,0,50,113.52v73a25.94,25.94,0,0,0,25.87,25.87H224.13A25.94,25.94,0,0,0,250,186.48v-73a25.94,25.94,0,0,0-25.87-25.87Z"/><path class="cls-2" d="M102.41,136a12.81,12.81,0,0,1,8.22-2.54q5,0,7.94,2.61a8.55,8.55,0,0,1,2.9,6.64,8.38,8.38,0,0,1-1.61,5.17,7.85,7.85,0,0,1-3.85,2.87v.19a8.19,8.19,0,0,1,4.48,3.19,10.84,10.84,0,0,1,1.61,6.31,8.88,8.88,0,0,1-3,6.76c-2,1.85-4.77,2.78-8.33,2.78a13.53,13.53,0,0,1-8.71-2.7,10,10,0,0,1-3.63-7.77h5.36a6,6,0,0,0,2,4.21,6.9,6.9,0,0,0,4.82,1.63,6.22,6.22,0,0,0,4.63-1.63,5.75,5.75,0,0,0,1.6-4.21q0-3.4-2.16-4.84c-1.45-1-3.66-1.44-6.65-1.44h-1.26v-4.57h1.31q8.08-.1,8.08-5.31a4.82,4.82,0,0,0-1.51-3.73,7.27,7.27,0,0,0-8.52,0,5.68,5.68,0,0,0-1.8,3.44h-5.4A9.28,9.28,0,0,1,102.41,136Z"/><path class="cls-2" d="M141.14,138a6.37,6.37,0,0,0-5.75,3c-1.26,2-1.93,5.22-2,9.76a8.39,8.39,0,0,1,3.71-3.31,11.94,11.94,0,0,1,5.25-1.17,10.51,10.51,0,0,1,7.89,3.11,11.65,11.65,0,0,1,3,8.45,12.16,12.16,0,0,1-3.07,8.64q-3.06,3.31-8.57,3.31-7.55,0-10.37-5.06a17.86,17.86,0,0,1-2-5.77,44,44,0,0,1-.59-7.72q0-17.8,12.56-17.81a10.71,10.71,0,0,1,7.67,2.63,10.42,10.42,0,0,1,3.29,6.47H147C146.31,139.51,144.35,138,141.14,138ZM148,158.09a7.59,7.59,0,0,0-1.73-5.21,6.16,6.16,0,0,0-4.89-2,7.71,7.71,0,0,0-5.23,1.78,6.4,6.4,0,0,0-2.07,5.14,7.32,7.32,0,0,0,1.92,5.33,6.93,6.93,0,0,0,5.19,2,6.53,6.53,0,0,0,5-1.9A7.21,7.21,0,0,0,148,158.09Z"/><path class="cls-2" d="M164.36,168.8a3.27,3.27,0,0,1-2.39.95,3.15,3.15,0,0,1-2.36-1,3.41,3.41,0,0,1,0-4.72,3.16,3.16,0,0,1,2.36-1,3.33,3.33,0,0,1,3.36,3.36A3.14,3.14,0,0,1,164.36,168.8Z"/><path class="cls-2" d="M184,165.08a5.45,5.45,0,0,0,5.06-2.73q1.61-2.72,1.61-9.3a7.48,7.48,0,0,1-3.29,2.56,11.61,11.61,0,0,1-4.6.9,11.4,11.4,0,0,1-8.1-3q-3.19-3-3.19-8.35a11.67,11.67,0,0,1,3.14-8.57c2.09-2.12,5-3.19,8.64-3.19q6.62,0,9.42,4.41t2.8,13.71q0,9.3-2.58,13.72t-9.25,4.44c-3.48,0-6.15-.91-8-2.73a10.43,10.43,0,0,1-3.16-6.87h5.11C178.2,163.43,180.34,165.08,184,165.08ZM176.77,145a7.14,7.14,0,0,0,1.73,5,7.37,7.37,0,0,0,9.83.1,8.23,8.23,0,0,0-.09-10.08,6.4,6.4,0,0,0-4.85-1.87,6.27,6.27,0,0,0-4.84,1.92A7,7,0,0,0,176.77,145Z"/><path class="cls-2" d="M207.83,169.75h-5.55v-36h5.55v20.93l9.74-11.73h7.69L212.9,156.37l12.36,13.38h-7.5l-9.93-11.53Z"/><path class="cls-2" d="M75.36,168.34V148.72h-5a1.3,1.3,0,0,1-1.12-1.94l8.6-14.88s1.74-.86,2.24,0l8.59,14.88a1.29,1.29,0,0,1-1.12,1.94h-5v19.62A3.62,3.62,0,0,1,79,172h0A3.62,3.62,0,0,1,75.36,168.34Z"/></g></svg>