<svg xmlns="http://www.w3.org/2000/svg" viewBox="0 0 300 300"><defs><style>.cls-1{fill:#f4f4f4;}.cls-2{fill:#687b88;}</style></defs><title>bar-graph-hor-grey</title><g id="background"><rect class="cls-1" width="300" height="300"/></g><g id="Layer_2" data-name="Layer 2"><path class="cls-2" d="M249.38,239.05l-15.53-9a1.25,1.25,0,0,0-1.87,1.08v5.48H63V66.47h4.78a1.25,1.25,0,0,0,1.08-1.87L60.6,50.27a1.25,1.25,0,0,0-2.16,0L50.17,64.6a1.25,1.25,0,0,0,1.08,1.87H56V240.13a3.49,3.49,0,0,0,3.49,3.49H232v5.48a1.25,1.25,0,0,0,1.87,1.08l15.53-9A1.25,1.25,0,0,0,249.38,239.05Z"/><rect class="cls-2" x="83.19" y="84.39" width="116.07" height="34.86" rx="4.98"/><rect class="cls-2" x="83.19" y="131.71" width="88.76" height="34.86" rx="4.98"/><rect class="cls-2" x="83.19" y="178.6" width="38.49" height="34.86" rx="4.98"/></g></svg>