<svg xmlns="http://www.w3.org/2000/svg" viewBox="0 0 300 300"><defs><style>.cls-1{fill:#344a58;}.cls-2{fill:#f5ab35;}.cls-3{fill:#687b88;}</style></defs><title>ll-frequency</title><g id="Layer_2" data-name="Layer 2"><path class="cls-1" d="M231.97965,243.61971v5.48113a1.24485,1.24485,0,0,0,1.86772,1.07787l15.53014-8.96825a1.245,1.245,0,0,0,0-2.15634l-15.53029-8.96642a1.24486,1.24486,0,0,0-1.86757,1.07786v5.47993H63.005V66.46884h4.78627a1.245,1.245,0,0,0,1.07817-1.86757L60.59823,50.275a1.245,1.245,0,0,0-2.15649,0L50.16866,64.60127A1.24508,1.24508,0,0,0,51.247,66.46884h4.78627V240.1326a3.486,3.486,0,0,0,3.4859,3.48711"/><path class="cls-2" d="M81.62193,199.61255h0a3.4871,3.4871,0,0,0,4.93153,0L129.91989,156.245l-4.93035-4.93035L81.622,194.681A3.48709,3.48709,0,0,0,81.62193,199.61255Z"/><path class="cls-2" d="M223.55273,93.40763,203.35657,98.8171a1.99192,1.99192,0,0,0-.89309,3.33263l4.927,4.9267-22.5948,22.59692-16.61682-16.61682a3.48613,3.48613,0,0,0-4.93009-.00005L134.849,141.45512l4.93035,4.93035,25.93448-25.9357,15.56045,15.56045a4.98021,4.98021,0,0,0,7.04293.00013l24.00452-24.00266,4.9267,4.927a1.99215,1.99215,0,0,0,3.333-.893l5.41088-20.19422A1.99207,1.99207,0,0,0,223.55273,93.40763Z"/><path class="cls-3" d="M216.14522,163.65623l-20.19606,5.40944a1.99207,1.99207,0,0,0-.8932,3.33285l4.92654,4.92655-17.09572,17.09816L102.9533,114.48975a4.98019,4.98019,0,0,0-7.04285-.00022l-14.2884,14.28668a3.48691,3.48691,0,0,0-.00014,4.93137h0a3.48689,3.48689,0,0,0,4.93141-.00019L99.432,120.82669l79.93346,79.93346a4.98021,4.98021,0,0,0,7.04287.0002l18.50576-18.50372,4.9267,4.92671a1.9922,1.9922,0,0,0,3.333-.89309l5.41091-20.19433A1.992,1.992,0,0,0,216.14522,163.65623Z"/></g></svg>