<svg xmlns="http://www.w3.org/2000/svg" viewBox="0 0 300 300"><defs><style>.cls-1{fill:#f4f4f4;}.cls-2{fill:#687b88;}</style></defs><title>statement-component-table-grey</title><g id="background"><rect class="cls-1" width="300" height="300"/></g><g id="Layer_2" data-name="Layer 2"><path class="cls-2" d="M75,49.65H225a10,10,0,0,1,10,10V87a0,0,0,0,1,0,0H65a0,0,0,0,1,0,0V59.65A10,10,0,0,1,75,49.65Z"/><path class="cls-2" d="M71.52,80.38V56.15h75.23V80.38Zm60.58,170M235,87V53.15a3.5,3.5,0,0,0-3.5-3.5h-163a3.5,3.5,0,0,0-3.5,3.5V247.64a2.7,2.7,0,0,0,2.7,2.71h61.13a3.25,3.25,0,0,0,3.25-3.25h0a3.24,3.24,0,0,0-3.25-3.25H71.52V87Zm-81.73-6.66V56.15h75.23V80.38Z"/><path class="cls-2" d="M124.5,115.44H91.25a3.25,3.25,0,0,1,0-6.5H124.5a3.25,3.25,0,0,1,0,6.5Z"/><path class="cls-2" d="M124.5,150.7H91.25a3.25,3.25,0,0,1,0-6.5H124.5a3.25,3.25,0,0,1,0,6.5Z"/><path class="cls-2" d="M109.29,186h-18a3.25,3.25,0,0,1,0-6.5h18a3.25,3.25,0,0,1,0,6.5Z"/><path class="cls-2" d="M124.5,221.23H91.25a3.25,3.25,0,0,1,0-6.5H124.5a3.25,3.25,0,1,1,0,6.5Z"/><path class="cls-2" d="M215.67,254.35h0a4,4,0,0,1,3.66-3.67c4.29-.34,11.63-1.73,16.06-7.07s5.16-13.34,2.44-24.12C233.91,204,235,192.09,241,184.14a22.68,22.68,0,0,1,5.36-5.08A22.54,22.54,0,0,1,241,174c-6-7.94-7.05-19.83-3.13-35.35,2.73-10.8,1.9-18.92-2.46-24.14-4.48-5.37-11.78-6.73-16-7.06a4,4,0,0,1-3.66-3.72h0A4,4,0,0,1,220,99.46c5.66.45,15.24,2.37,21.52,9.89,6.1,7.3,7.47,17.81,4.07,31.23-3.23,12.79-2.64,22.64,1.7,28.48a15.05,15.05,0,0,0,7.51,5.32,4.89,4.89,0,0,1,3.34,4.7h0a4.88,4.88,0,0,1-3.33,4.65,15,15,0,0,0-7.52,5.33c-4.34,5.84-4.93,15.69-1.7,28.48,3.4,13.42,2,23.93-4.07,31.23-5.82,7-15.36,9.13-21.52,9.77A3.94,3.94,0,0,1,215.67,254.35Z"/><path class="cls-2" d="M166.63,254.38a3.9,3.9,0,0,1-4.28,4.16c-6.16-.63-15.73-2.79-21.55-9.77-6.1-7.3-7.47-17.81-4.08-31.23,3.23-12.79,2.65-22.64-1.69-28.48a15,15,0,0,0-7.52-5.32,4.9,4.9,0,0,1-3.33-4.7h0a4.9,4.9,0,0,1,3.33-4.66,15,15,0,0,0,7.52-5.32c4.34-5.84,4.92-15.69,1.69-28.48-3.39-13.42-2-23.93,4.08-31.23,6.28-7.52,15.87-9.45,21.53-9.89a4,4,0,0,1,4.31,4.23v.08a4,4,0,0,1-3.66,3.67c-4.3.34-11.62,1.73-16.06,7.07s-5.16,13.34-2.43,24.11c3.92,15.52,2.86,27.41-3.14,35.35a22.17,22.17,0,0,1-5.36,5.09,22.17,22.17,0,0,1,5.36,5.09c6,7.94,7.06,19.83,3.14,35.34-2.73,10.8-1.9,18.93,2.46,24.15,4.48,5.37,11.78,6.73,16,7.06a3.91,3.91,0,0,1,3.65,3.63Z"/><path class="cls-2" d="M191.57,212.52a5,5,0,0,1-5-5V185.35a5,5,0,1,1,10,0v22.17A5,5,0,0,1,191.57,212.52Z"/><circle class="cls-2" cx="191.57" cy="155.17" r="6.58"/></g></svg>