<?xml version="1.0" encoding="UTF-8"?>
<svg width="163px" height="174px" viewBox="0 0 163 174" version="1.1" xmlns="http://www.w3.org/2000/svg" xmlns:xlink="http://www.w3.org/1999/xlink">
    <!-- Generator: Sketch 51.1 (57501) - http://www.bohemiancoding.com/sketch -->
    <title>ll-statement-component-table</title>
    <desc>Created with Sketch.</desc>
    <defs></defs>
    <g id="Page-1" stroke="none" stroke-width="1" fill="none" fill-rule="evenodd">
        <g id="Artboard-4" transform="translate(-61.000000, -205.000000)" fill-rule="nonzero">
            <g id="ll-statement-component-table" transform="translate(61.000000, 205.000000)">
                <path d="M8.41339195,0 L134.586608,0 C139.233196,5.89085473e-15 143,3.7118464 143,8.29064099 L143,31 L0,31 L0,8.29064099 C0,3.7118464 3.76680388,5.89085473e-15 8.41339195,0 Z" id="Shape" fill="#677B89"></path>
                <path d="M5.46869962,25.7221705 L5.46869962,5.44112728 L68.7656502,5.44112728 L68.7656502,25.7221705 L5.46869962,25.7221705 Z M143,31.3001788 L143,2.92986546 C143,1.31177318 141.68162,5.02254039e-05 140.055316,5.02254039e-05 L74.2343498,5.02254039e-05 L74.2343498,0 L68.7656502,0 L68.7656502,5.02254039e-05 L2.94468441,5.02254039e-05 C1.31838012,5.02254039e-05 0,1.31177318 0,2.92986546 L0,165.737588 C-8.59646309e-12,166.987081 1.01805177,167.999995 2.2738853,168 L53.7085617,168 C55.2187014,168 56.4429115,166.781972 56.4429115,165.279457 C56.4429115,163.776943 55.2187014,162.558915 53.7085617,162.558915 L5.46874169,162.558915 L5.46874169,31.3001788 L143,31.3001788 Z M74.2343498,25.7221705 L74.2343498,5.44112728 L137.5313,5.44112728 L137.5313,25.7221705 L74.2343498,25.7221705 Z" id="Shape" fill="#344A58"></path>
                <path d="M49.3018868,54 L21.6981132,54 C20.2079864,54 19,52.8807119 19,51.5 C19,50.1192881 20.2079864,49 21.6981132,49 L49.3018868,49 C50.7920136,49 52,50.1192881 52,51.5 C52,52.8807119 50.7920136,54 49.3018868,54 Z" id="Shape" fill="#9BA5AB"></path>
                <path d="M49.3018868,84 L21.6981132,84 C20.2079864,84 19,82.8807119 19,81.5 C19,80.1192881 20.2079864,79 21.6981132,79 L49.3018868,79 C50.7920136,79 52,80.1192881 52,81.5 C52,82.8807119 50.7920136,84 49.3018868,84 Z" id="Shape" fill="#9BA5AB"></path>
                <path d="M37.2183458,113 L21.7816542,113 C20.245389,113 19,111.880712 19,110.5 C19,109.119288 20.245389,108 21.7816542,108 L37.2183458,108 C38.754611,108 40,109.119288 40,110.5 C40,111.880712 38.754611,113 37.2183458,113 Z" id="Shape" fill="#9BA5AB"></path>
                <path d="M49.3018868,143 L21.6981132,143 C20.2079864,143 19,141.880712 19,140.5 C19,139.119288 20.2079864,138 21.6981132,138 L49.3018868,138 C50.7920136,138 52,139.119288 52,140.5 C52,141.880712 50.7920136,143 49.3018868,143 Z" id="Shape" fill="#9BA5AB"></path>
                <path d="M127.007887,170.484433 C127.124569,168.843495 128.446227,167.536368 130.110001,167.416428 C133.749407,167.132961 139.968528,165.97185 143.728952,161.506937 C147.406199,157.139732 148.100757,150.357913 145.792747,141.34841 C142.470645,128.3823 143.364702,118.440587 148.450926,111.799983 C149.71559,110.144913 151.250323,108.708522 152.992441,107.549477 C151.250323,106.390431 149.71559,104.95404 148.450926,103.29897 C143.364702,96.6583666 142.470645,86.7166532 145.792747,73.7501339 C148.105724,64.7222668 147.403715,57.9310607 143.706598,53.5646662 C139.910884,49.082367 133.726281,47.9398793 130.107729,47.670179 C128.435069,47.5348326 127.115838,46.2108647 127.008065,44.5593849 C126.942652,43.589047 127.309635,42.6388261 128.013052,41.9571992 C128.716468,41.2755723 129.686369,40.9303219 130.66913,41.0117291 C135.46521,41.3871947 143.590683,42.9946301 148.912052,49.2786927 C154.080232,55.3817598 155.242511,64.1663741 152.367438,75.3880459 C149.628955,86.0783165 150.124828,94.3090694 153.802075,99.1897208 C155.40118,101.293838 157.629512,102.850165 160.173097,103.639412 C161.879007,104.20463 163.020723,105.790017 162.999715,107.564456 C163.007365,109.326726 161.869159,110.895591 160.175275,111.457569 C157.630904,112.247461 155.40188,113.804408 153.802075,115.909174 C150.124828,120.789826 149.628955,129.020578 152.367438,139.710849 C155.242511,150.931702 154.080232,159.716726 148.912052,165.819383 C143.980008,171.643706 135.893157,173.451145 130.668418,173.983624 C129.69069,174.080133 128.719539,173.746708 128.014027,173.072292 C127.308515,172.397876 126.940403,171.451067 127.007887,170.484433 Z" id="Shape" fill="#F5AB35"></path>
                <path d="M85.9886911,170.506542 C86.0569207,171.466454 85.6922621,172.407166 84.9920923,173.077473 C84.2919226,173.74778 83.3275444,174.07942 82.3564816,173.983834 C77.1327109,173.454729 69.0277102,171.651148 64.0879283,165.817197 C58.9205807,159.714698 57.7583045,150.929901 60.6333718,139.709339 C63.3718487,129.019346 62.8759768,120.788806 59.1979065,115.908281 C57.5989673,113.804057 55.3706029,112.247708 52.8269403,111.45863 C51.1210101,110.893469 49.9792688,109.308122 50.0002853,107.533721 C49.9926352,105.771522 51.1308211,104.202718 52.8246769,103.640759 C55.3690631,102.8509 57.5981005,101.293989 59.1979065,99.1892611 C62.8759768,94.307917 63.3718487,86.0781966 60.6333718,75.3882029 C57.7583045,64.1668219 58.9205807,55.3824353 64.0887506,49.2795263 C69.4131689,42.9916979 77.5461608,41.3858087 82.3408245,41.0116819 C83.3210332,40.9305499 84.2883945,41.2749066 84.9900009,41.954723 C85.6916073,42.6345395 86.0577053,43.5822287 85.9925821,44.5500262 L85.9880384,44.6156921 C85.8683469,46.2573452 84.5451574,47.5637552 82.880421,47.6839016 C79.2430828,47.9677461 73.0296282,49.1285766 69.2709923,53.5919275 C65.5937528,57.9590197 64.9000271,64.7410727 67.2080324,73.7499321 C70.530127,86.716525 69.6360723,96.6579808 64.5498583,103.297593 C63.2851462,104.953082 61.7501103,106.389727 60.0075301,107.548775 C61.7501103,108.707823 63.2851462,110.144469 64.5498583,111.799958 C69.6360723,118.43957 70.530127,128.381026 67.2080324,141.346799 C64.8950596,150.374031 65.5970673,157.165471 69.294177,161.531744 C73.0892047,166.014454 79.278254,167.157982 82.8966375,167.427441 C84.5504538,167.540758 85.8676092,168.836815 85.9859869,170.467306 L85.9886911,170.506542 Z" id="Shape" fill="#F6AB37"></path>
                <path d="M106,136 C104.939109,136.000085 103.921647,135.557972 103.171484,134.770939 C102.421321,133.983907 101.999919,132.916437 102,131.803405 L102,113.196595 C102,110.878879 103.790861,109 106,109 C108.209139,109 110,110.878879 110,113.196595 L110,131.803405 C110.000079,132.916437 109.578676,133.983905 108.828514,134.770937 C108.078351,135.557969 107.06089,136.000082 106,136 Z" id="Shape" fill="#F6AB37"></path>
                <circle id="Oval" fill="#F6AB37" cx="106.5" cy="87.5" r="5.5"></circle>
            </g>
        </g>
    </g>
</svg>