<svg xmlns="http://www.w3.org/2000/svg" viewBox="0 0 300 300"><defs><style>.cls-1{fill:#687b88;}.cls-2{fill:#344a58;}.cls-3{fill:#9ba5ab;}.cls-4{fill:#f5ab35;}</style></defs><title>ll-statement-component-table</title><g id="Layer_2" data-name="Layer 2"><path class="cls-1" d="M75.01644,49.65239H224.98356a10,10,0,0,1,10,10V87.04395a0,0,0,0,1,0,0H65.01644a0,0,0,0,1,0,0V59.65239A10,10,0,0,1,75.01644,49.65239Z"/><path class="cls-2" d="M71.51636,80.38043V56.1524H146.75v24.228Zm60.58708,169.96723M234.98364,87.044V53.15241a3.5,3.5,0,0,0-3.5-3.5H153.25v-.00006h-6.5v.00006H68.51636a3.5,3.5,0,0,0-3.5,3.5V247.64489a2.70271,2.70271,0,0,0,2.7027,2.70271l61.13435,0a3.25,3.25,0,0,0,3.25-3.25h0a3.25,3.25,0,0,0-3.25-3.25h-57.337V87.044ZM153.25,80.38043V56.1524h75.23364v24.228Z"/><path class="cls-3" d="M124.5,115.43848H91.25a3.25,3.25,0,0,1,0-6.5H124.5a3.25,3.25,0,0,1,0,6.5Z"/><path class="cls-3" d="M124.5,150.70215H91.25a3.25,3.25,0,0,1,0-6.5H124.5a3.25,3.25,0,0,1,0,6.5Z"/><path class="cls-3" d="M109.28576,185.96582H91.25a3.25,3.25,0,0,1,0-6.5h18.03576a3.25,3.25,0,0,1,0,6.5Z"/><path class="cls-3" d="M124.5,221.22852H91.25a3.25,3.25,0,0,1,0-6.5H124.5a3.25,3.25,0,0,1,0,6.5Z"/><path class="cls-4" d="M215.66941,254.35039h0a3.95769,3.95769,0,0,1,3.65943-3.67034c4.29325-.33912,11.62968-1.72819,16.06569-7.06969,4.33789-5.22461,5.15723-13.33789,2.43457-24.11621-3.91894-15.51172-2.86426-27.40527,3.13574-35.34961a22.3822,22.3822,0,0,1,5.35743-5.085,22.3822,22.3822,0,0,1-5.35743-5.085c-6-7.94434-7.05468-19.83789-3.13574-35.3501,2.72852-10.80029,1.90039-18.9248-2.46094-24.14844-4.47764-5.3623-11.77335-6.72909-16.042-7.05174a3.9912,3.9912,0,0,1-3.65654-3.72153h0a3.99331,3.99331,0,0,1,4.3188-4.24416c5.65773.44918,15.243,2.3722,21.52039,9.89,6.09668,7.30127,7.46777,17.81055,4.07617,31.23535-3.23047,12.78907-2.64551,22.63575,1.69238,28.47461a15.02922,15.02922,0,0,0,7.51562,5.32329,4.89337,4.89337,0,0,1,3.33444,4.69564h0a4.8919,4.8919,0,0,1-3.33187,4.65744,15.03965,15.03965,0,0,0-7.51819,5.32558c-4.33789,5.83886-4.92285,15.68554-1.69238,28.47461,3.3916,13.42382,2.02051,23.93359-4.07617,31.23437-5.81812,6.9678-15.35783,9.13009-21.52123,9.76711A3.93547,3.93547,0,0,1,215.66941,254.35039Z"/><path class="cls-4" d="M166.63232,254.37967a3.9063,3.9063,0,0,1-4.28477,4.16009c-6.16227-.633-15.72341-2.79073-21.55067-9.77023-6.09571-7.30078-7.4668-17.81055-4.0752-31.23437,3.23047-12.78907,2.64551-22.63575-1.69336-28.47461a15.02576,15.02576,0,0,0-7.51557-5.32338,4.89326,4.89326,0,0,1-3.33449-4.6956h0a4.89184,4.89184,0,0,1,3.33182-4.65738,15.03951,15.03951,0,0,0,7.51824-5.32559c4.33887-5.83984,4.92383-15.68554,1.69336-28.47461-3.3916-13.4248-2.02051-23.93408,4.07617-31.23535,6.281-7.5225,15.87516-9.44372,21.53123-9.89131a3.98337,3.98337,0,0,1,4.30783,4.23313l-.00536.07856a3.96562,3.96562,0,0,1-3.66593,3.67068c-4.29082.33958-11.62058,1.72835-16.05449,7.06812-4.33789,5.22461-5.15625,13.33838-2.43359,24.11621,3.91894,15.5127,2.86426,27.40625-3.13574,35.34961a22.37123,22.37123,0,0,1-5.3584,5.08594,22.37123,22.37123,0,0,1,5.3584,5.08594c6,7.94336,7.05468,19.83691,3.13574,35.34863-2.72852,10.79981-1.90039,18.92481,2.46094,24.14844,4.47684,5.36293,11.77781,6.731,16.04627,7.05337a3.9266,3.9266,0,0,1,3.64438,3.63677Z"/><path class="cls-4" d="M191.57227,212.52246a4.99962,4.99962,0,0,1-5-5V185.35352a5,5,0,0,1,10,0v22.16894A4.99963,4.99963,0,0,1,191.57227,212.52246Z"/><circle class="cls-4" cx="191.5723" cy="155.16886" r="6.58081"/></g></svg>